<svg viewBox="0 -64 512 512" xmlns="http://www.w3.org/2000/svg"><path d="m481.105469 383h-450.210938c-17.0625 0-30.894531-13.832031-30.894531-30.894531v-321.210938c0-17.0625 13.832031-30.894531 30.894531-30.894531h450.207031c17.066407 0 30.898438 13.832031 30.898438 30.894531v321.207031c0 17.066407-13.832031 30.898438-30.894531 30.898438zm0 0" fill="#ffd659"/><path d="m481.09375 0h-30.902344c17.070313 0 30.90625 13.828125 30.90625 30.886719v321.226562c0 17.058594-13.839844 30.886719-30.90625 30.886719h30.902344c17.070312 0 30.90625-13.828125 30.90625-30.886719v-321.226562c0-17.058594-13.835938-30.886719-30.90625-30.886719zm0 0" fill="#ffbd54"/><path d="m84.078125 325.425781h-22.902344c-2.210937 0-4-1.792969-4-4v-259.851562c0-2.207031 1.789063-4 4-4h22.902344c2.210937 0 4 1.792969 4 4v259.847656c0 2.210937-1.789063 4.003906-4 4.003906zm0 0" fill="#685c79"/><path d="m166.496094 325.425781h-22.90625c-2.207032 0-4-1.792969-4-4v-259.851562c0-2.207031 1.792968-4 4-4h22.90625c2.207031 0 4 1.792969 4 4v259.847656c0 2.210937-1.792969 4.003906-4 4.003906zm0 0" fill="#685c79"/><path d="m248.910156 325.425781h-22.90625c-2.207031 0-4-1.792969-4-4v-259.851562c0-2.207031 1.792969-4 4-4h22.90625c2.207032 0 4 1.792969 4 4v259.847656c0 2.210937-1.792968 4.003906-4 4.003906zm0 0" fill="#685c79"/><path d="m331.324219 325.425781h-22.90625c-2.207031 0-4-1.792969-4-4v-259.851562c0-2.207031 1.792969-4 4-4h22.90625c2.207031 0 4 1.792969 4 4v259.847656c0 2.210937-1.792969 4.003906-4 4.003906zm0 0" fill="#685c79"/><path d="m464.101562 88.480469c0 2.589843-.320312 5.097656-.910156 7.5-2.761718 11.039062-11.453125 19.738281-22.5 22.488281-2.402344.601562-4.910156.921875-7.5.921875s-5.101562-.320313-7.5-.921875c-11.050781-2.75-19.730468-11.449219-22.492187-22.488281-.589844-2.402344-.910157-4.910157-.910157-7.5 0-2.589844.320313-5.101563.910157-7.5 2.761719-11.039063 11.441406-19.730469 22.492187-22.480469 2.398438-.601562 4.910156-.921875 7.5-.921875s5.097656.320313 7.5.921875c11.046875 2.75 19.738282 11.441406 22.5 22.480469.589844 2.398437.910156 4.910156.910156 7.5zm0 0" fill="#ff2c5c"/><path d="m87.050781 170.144531h-28.847656c-9.101563 0-16.480469-7.378906-16.480469-16.480469v-47.390624c0-9.101563 7.378906-16.480469 16.480469-16.480469h28.847656c9.101563 0 16.480469 7.378906 16.480469 16.480469v47.390624c0 9.101563-7.378906 16.480469-16.480469 16.480469zm0 0" fill="#ff2c5c"/><path d="m87.050781 89.789062h-28.847656c-.347656 0-.6875.03125-1.027344.054688 8.621094.535156 15.453125 7.675781 15.453125 16.429688v47.386718c0 8.757813-6.832031 15.898438-15.453125 16.433594.339844.019531.679688.050781 1.027344.050781h28.847656c9.101563 0 16.480469-7.378906 16.480469-16.484375v-47.386718c0-9.101563-7.378906-16.484376-16.480469-16.484376zm0 0" fill="#e62753"/><path d="m169.464844 292.582031h-28.84375c-9.105469 0-16.484375-7.378906-16.484375-16.484375v-47.386718c0-9.105469 7.378906-16.484376 16.484375-16.484376h28.84375c9.101562 0 16.484375 7.378907 16.484375 16.484376v47.386718c0 9.105469-7.382813 16.484375-16.484375 16.484375zm0 0" fill="#ff2c5c"/><path d="m169.464844 212.226562h-28.84375c-.347656 0-.6875.03125-1.03125.054688 8.621094.53125 15.453125 7.671875 15.453125 16.429688v47.386718c0 8.757813-6.832031 15.898438-15.453125 16.433594.34375.019531.683594.050781 1.03125.050781h28.84375c9.101562 0 16.484375-7.378906 16.484375-16.484375v-47.386718c0-9.105469-7.382813-16.484376-16.484375-16.484376zm0 0" fill="#e62753"/><path d="m251.878906 183.804688h-28.84375c-9.105468 0-16.484375-7.378907-16.484375-16.480469v-47.390625c0-9.101563 7.378907-16.480469 16.484375-16.480469h28.84375c9.101563 0 16.484375 7.378906 16.484375 16.480469v47.390625c0 9.101562-7.378906 16.480469-16.484375 16.480469zm0 0" fill="#ff2c5c"/><path d="m251.878906 103.449219h-28.84375c-.347656 0-.6875.03125-1.03125.054687 8.621094.53125 15.457032 7.675782 15.457032 16.429688v47.386718c0 8.757813-6.832032 15.898438-15.457032 16.433594.34375.019532.683594.050782 1.03125.050782h28.84375c9.101563 0 16.484375-7.378907 16.484375-16.484376v-47.386718c0-9.101563-7.378906-16.484375-16.484375-16.484375zm0 0" fill="#e62753"/><path d="m334.292969 281.9375h-28.84375c-9.101563 0-16.484375-7.382812-16.484375-16.484375v-47.386719c0-9.105468 7.382812-16.484375 16.484375-16.484375h28.84375c9.105469 0 16.484375 7.378907 16.484375 16.484375v47.386719c0 9.101563-7.378906 16.484375-16.484375 16.484375zm0 0" fill="#ff2c5c"/><path d="m334.292969 201.582031h-28.84375c-.347657 0-.6875.03125-1.03125.050781 8.621093.535157 15.453125 7.675782 15.453125 16.429688v47.390625c0 8.753906-6.832032 15.894531-15.453125 16.429687.34375.019532.683593.050782 1.03125.050782h28.84375c9.105469 0 16.484375-7.378906 16.484375-16.480469v-47.390625c0-9.101562-7.378906-16.480469-16.484375-16.480469zm0 0" fill="#e62753"/><path d="m464.101562 294.519531c0 2.589844-.320312 5.101563-.910156 7.5-2.761718 11.039063-11.453125 19.730469-22.5 22.480469-2.402344.601562-4.910156.921875-7.5.921875s-5.101562-.320313-7.5-.921875c-11.050781-2.75-19.730468-11.441406-22.492187-22.480469-.589844-2.398437-.910157-4.910156-.910157-7.5 0-2.589843.320313-5.097656.910157-7.5 2.761719-11.039062 11.441406-19.738281 22.492187-22.488281 2.398438-.601562 4.910156-.921875 7.5-.921875s5.097656.320313 7.5.921875c11.046875 2.75 19.738282 11.449219 22.5 22.488281.589844 2.402344.910156 4.910157.910156 7.5zm0 0" fill="#ff2c5c"/><path d="m433.191406 232.707031c-8.535156 0-15.453125-6.917969-15.453125-15.453125v-51.507812c0-8.535156 6.917969-15.453125 15.453125-15.453125s15.453125 6.917969 15.453125 15.453125v51.507812c0 8.535156-6.917969 15.453125-15.453125 15.453125zm0 0" fill="#51c4f5"/><path d="m440.691406 58.5v9.378906c0 4.140625-3.363281 7.5-7.5 7.5-4.140625 0-7.5-3.359375-7.5-7.5v-9.378906c2.398438-.601562 4.910156-.921875 7.5-.921875s5.097656.320313 7.5.921875zm0 0" fill="#d6244d"/><path d="m440.691406 109.089844v9.378906c-2.402344.601562-4.910156.921875-7.5.921875s-5.101562-.320313-7.5-.921875v-9.378906c0-4.148438 3.359375-7.5 7.5-7.5 4.136719 0 7.5 3.351562 7.5 7.5zm0 0" fill="#d6244d"/><path d="m464.101562 88.480469c0 2.589843-.320312 5.097656-.910156 7.5h-9.402344c-4.140624 0-7.5-3.359375-7.5-7.5s3.359376-7.5 7.5-7.5h9.402344c.589844 2.398437.910156 4.910156.910156 7.5zm0 0" fill="#d6244d"/><path d="m420.089844 88.480469c0 4.140625-3.359375 7.5-7.5 7.5h-9.390625c-.589844-2.402344-.910157-4.910157-.910157-7.5 0-2.589844.320313-5.101563.910157-7.5h9.390625c4.140625 0 7.5 3.359375 7.5 7.5zm0 0" fill="#d6244d"/><path d="m440.691406 264.53125v9.378906c0 4.148438-3.363281 7.5-7.5 7.5-4.140625 0-7.5-3.351562-7.5-7.5v-9.378906c2.398438-.601562 4.910156-.921875 7.5-.921875s5.097656.320313 7.5.921875zm0 0" fill="#d6244d"/><path d="m440.691406 315.121094v9.378906c-2.402344.601562-4.910156.921875-7.5.921875s-5.101562-.320313-7.5-.921875v-9.378906c0-4.140625 3.359375-7.5 7.5-7.5 4.136719 0 7.5 3.359375 7.5 7.5zm0 0" fill="#d6244d"/><path d="m464.101562 294.519531c0 2.589844-.320312 5.101563-.910156 7.5h-9.402344c-4.140624 0-7.5-3.359375-7.5-7.5s3.359376-7.5 7.5-7.5h9.402344c.589844 2.402344.910156 4.910157.910156 7.5zm0 0" fill="#d6244d"/><path d="m420.089844 294.519531c0 4.140625-3.359375 7.5-7.5 7.5h-9.390625c-.589844-2.398437-.910157-4.910156-.910157-7.5 0-2.589843.320313-5.097656.910157-7.5h9.390625c4.140625 0 7.5 3.359375 7.5 7.5zm0 0" fill="#d6244d"/><path d="m38.921875 31.308594c0 4.140625-3.359375 7.5-7.5 7.5-4.144531 0-7.5-3.359375-7.5-7.5 0-4.144532 3.355469-7.5 7.5-7.5 4.140625 0 7.5 3.355468 7.5 7.5zm0 0" fill="#594f69"/><path d="m486.019531 31.308594c0 4.140625-3.359375 7.5-7.5 7.5-4.144531 0-7.5-3.359375-7.5-7.5 0-4.144532 3.355469-7.5 7.5-7.5 4.140625 0 7.5 3.355468 7.5 7.5zm0 0" fill="#594f69"/><path d="m38.921875 350.121094c0-4.417969-3.359375-8-7.5-8-4.144531 0-7.5 3.582031-7.5 8 0 4.417968 3.355469 8 7.5 8 4.140625 0 7.5-3.582032 7.5-8zm0 0" fill="#594f69"/><path d="m486.019531 350.121094c0 4.140625-3.359375 7.5-7.5 7.5-4.144531 0-7.5-3.359375-7.5-7.5s3.355469-7.5 7.5-7.5c4.140625 0 7.5 3.359375 7.5 7.5zm0 0" fill="#594f69"/><g fill="#d6244d"><path d="m80.355469 102.894531h-15.453125c-4.144532 0-7.5 3.359375-7.5 7.5 0 4.144531 3.355468 7.5 7.5 7.5h15.453125c4.140625 0 7.5-3.355469 7.5-7.5 0-4.140625-3.359375-7.5-7.5-7.5zm0 0"/><path d="m80.355469 142.042969h-15.453125c-4.144532 0-7.5 3.355469-7.5 7.5 0 4.140625 3.355468 7.5 7.5 7.5h15.453125c4.140625 0 7.5-3.359375 7.5-7.5 0-4.144531-3.359375-7.5-7.5-7.5zm0 0"/><path d="m80.355469 122.46875h-15.453125c-4.144532 0-7.5 3.355469-7.5 7.5s3.355468 7.5 7.5 7.5h15.453125c4.140625 0 7.5-3.355469 7.5-7.5s-3.359375-7.5-7.5-7.5zm0 0"/><path d="m162.769531 225.332031h-15.453125c-4.140625 0-7.5 3.355469-7.5 7.5 0 4.140625 3.359375 7.5 7.5 7.5h15.453125c4.140625 0 7.5-3.359375 7.5-7.5 0-4.144531-3.359375-7.5-7.5-7.5zm0 0"/><path d="m162.769531 264.480469h-15.453125c-4.140625 0-7.5 3.355469-7.5 7.5 0 4.140625 3.359375 7.5 7.5 7.5h15.453125c4.140625 0 7.5-3.359375 7.5-7.5 0-4.144531-3.359375-7.5-7.5-7.5zm0 0"/><path d="m162.769531 244.902344h-15.453125c-4.140625 0-7.5 3.359375-7.5 7.5 0 4.144531 3.359375 7.5 7.5 7.5h15.453125c4.140625 0 7.5-3.355469 7.5-7.5 0-4.140625-3.359375-7.5-7.5-7.5zm0 0"/><path d="m245.183594 116.554688h-15.453125c-4.140625 0-7.5 3.355468-7.5 7.5 0 4.144531 3.359375 7.5 7.5 7.5h15.453125c4.140625 0 7.5-3.355469 7.5-7.5 0-4.144532-3.359375-7.5-7.5-7.5zm0 0"/><path d="m245.183594 155.703125h-15.453125c-4.140625 0-7.5 3.355469-7.5 7.5 0 4.140625 3.359375 7.5 7.5 7.5h15.453125c4.140625 0 7.5-3.359375 7.5-7.5 0-4.144531-3.359375-7.5-7.5-7.5zm0 0"/><path d="m245.183594 136.128906h-15.453125c-4.140625 0-7.5 3.355469-7.5 7.5 0 4.144532 3.359375 7.5 7.5 7.5h15.453125c4.140625 0 7.5-3.355468 7.5-7.5 0-4.144531-3.359375-7.5-7.5-7.5zm0 0"/><path d="m312.144531 229.6875h15.453125c4.140625 0 7.5-3.359375 7.5-7.5 0-4.144531-3.359375-7.5-7.5-7.5h-15.453125c-4.140625 0-7.5 3.355469-7.5 7.5 0 4.140625 3.359375 7.5 7.5 7.5zm0 0"/><path d="m327.597656 253.832031h-15.453125c-4.140625 0-7.5 3.355469-7.5 7.5s3.359375 7.5 7.5 7.5h15.453125c4.140625 0 7.5-3.355469 7.5-7.5s-3.359375-7.5-7.5-7.5zm0 0"/><path d="m327.597656 234.257812h-15.453125c-4.140625 0-7.5 3.359376-7.5 7.5 0 4.144532 3.359375 7.5 7.5 7.5h15.453125c4.140625 0 7.5-3.355468 7.5-7.5 0-4.140624-3.359375-7.5-7.5-7.5zm0 0"/></g></svg>