<svg xmlns="http://www.w3.org/2000/svg" height="512pt" version="1.1" viewBox="-15 0 512 512" width="512pt">
<g id="surface1">
<path d="M 480.558594 496.550781 C 480.515625 495.042969 479.332031 459.179688 465.15625 418.757812 C 429.179688 316.152344 355.304688 310.542969 346.035156 305.109375 L 346.035156 435.902344 L 424.484375 512 L 481.003906 512 Z M 480.558594 496.550781 " style=" stroke:none;fill-rule:nonzero;fill:rgb(99.215686%,45.882353%,37.647059%);fill-opacity:1;" />
<path d="M 15.847656 418.757812 C 1.675781 459.179688 0.488281 495.042969 0.445312 496.550781 L 0 512 L 56.523438 512 L 134.96875 435.902344 L 134.96875 305.109375 C 125.714844 310.53125 51.820312 316.175781 15.847656 418.757812 Z M 15.847656 418.757812 " style=" stroke:none;fill-rule:nonzero;fill:rgb(99.215686%,57.647059%,36.078431%);fill-opacity:1;" />
<path d="M 376.042969 224.753906 L 376.042969 439.503906 C 362.445312 444.074219 315.015625 471.953125 240.503906 471.953125 C 166.132812 471.953125 119.230469 444.304688 104.960938 439.503906 L 104.960938 224.753906 C 104.960938 202.683594 108.003906 183.980469 111.390625 169.683594 C 113.816406 159.453125 116.816406 149.6875 120.632812 139.652344 L 360.375 139.652344 C 364.207031 149.757812 367.253906 159.746094 369.605469 169.683594 C 373.003906 183.972656 376.042969 202.660156 376.042969 224.753906 Z M 376.042969 224.753906 " style=" stroke:none;fill-rule:nonzero;fill:rgb(94.509804%,94.509804%,96.470588%);fill-opacity:1;" />
<path d="M 376.042969 224.753906 L 376.042969 439.503906 C 362.445312 444.074219 315.015625 471.953125 240.503906 471.953125 L 240.503906 139.652344 L 360.375 139.652344 C 364.207031 149.757812 367.253906 159.746094 369.605469 169.683594 C 373.003906 183.972656 376.042969 202.660156 376.042969 224.753906 Z M 376.042969 224.753906 " style=" stroke:none;fill-rule:nonzero;fill:rgb(83.137255%,83.921569%,88.235294%);fill-opacity:1;" />
<path d="M 369.605469 169.683594 L 111.390625 169.683594 C 113.816406 159.453125 116.816406 149.6875 120.632812 139.652344 C 122.929688 133.589844 125.703125 127.011719 129.3125 119.632812 C 134.410156 109.191406 140.261719 99.160156 146.820312 89.601562 C 159.230469 71.5 174.152344 55.101562 191.242188 40.910156 L 240.503906 0 L 289.761719 40.910156 C 306.851562 55.101562 321.773438 71.5 334.183594 89.601562 C 340.742188 99.160156 346.59375 109.191406 351.695312 119.632812 C 355.304688 127 358.074219 133.589844 360.375 139.652344 C 364.207031 149.757812 367.253906 159.746094 369.605469 169.683594 Z M 369.605469 169.683594 " style=" stroke:none;fill-rule:nonzero;fill:rgb(100%,96.078431%,85.882353%);fill-opacity:1;" />
<path d="M 369.605469 169.683594 L 240.503906 169.683594 L 240.503906 0 L 289.761719 40.910156 C 306.851562 55.101562 321.773438 71.5 334.183594 89.601562 C 340.742188 99.160156 346.59375 109.191406 351.695312 119.632812 C 355.304688 127 358.074219 133.589844 360.375 139.652344 C 364.207031 149.757812 367.253906 159.746094 369.605469 169.683594 Z M 369.605469 169.683594 " style=" stroke:none;fill-rule:nonzero;fill:rgb(99.607843%,88.235294%,58.431373%);fill-opacity:1;" />
<path d="M 351.691406 119.636719 L 129.3125 119.636719 C 134.414062 109.195312 140.265625 99.164062 146.820312 89.605469 L 334.1875 89.605469 C 340.738281 99.164062 346.589844 109.195312 351.691406 119.636719 Z M 351.691406 119.636719 " style=" stroke:none;fill-rule:nonzero;fill:rgb(20%,45.098039%,61.960784%);fill-opacity:1;" />
<path d="M 240.503906 210.695312 C 204.652344 210.695312 175.484375 239.886719 175.484375 275.761719 C 175.484375 311.640625 204.648438 340.828125 240.503906 340.828125 C 276.355469 340.828125 305.519531 311.640625 305.519531 275.761719 C 305.519531 239.886719 276.355469 210.695312 240.503906 210.695312 Z M 240.503906 210.695312 " style=" stroke:none;fill-rule:nonzero;fill:rgb(99.215686%,57.647059%,36.078431%);fill-opacity:1;" />
<path d="M 225.5 390.25 L 255.507812 390.25 L 255.507812 512 L 225.5 512 Z M 225.5 390.25 " style=" stroke:none;fill-rule:nonzero;fill:rgb(99.215686%,45.882353%,37.647059%);fill-opacity:1;" />
<path d="M 334.1875 89.605469 L 240.503906 89.605469 L 240.503906 119.636719 L 351.691406 119.636719 C 346.589844 109.195312 340.738281 99.164062 334.1875 89.605469 Z M 334.1875 89.605469 " style=" stroke:none;fill-rule:nonzero;fill:rgb(15.294118%,36.078431%,49.803922%);fill-opacity:1;" />
<path d="M 240.503906 210.695312 L 240.503906 340.828125 C 276.355469 340.828125 305.519531 311.640625 305.519531 275.761719 C 305.519531 239.886719 276.355469 210.695312 240.503906 210.695312 Z M 240.503906 210.695312 " style=" stroke:none;fill-rule:nonzero;fill:rgb(99.215686%,45.882353%,37.647059%);fill-opacity:1;" />
</g>
</svg>